# xmcd
#
# Track frame offsets:
#	150
#	20600
#	46671
#	54454
#	78371
#	101448
#	119956
#	130464
#	154807
#	174671
#	178971
#	184409
#	189878
#	196849
#	213883
#	224327
#	230083
#	242521
#	250546
#	255096
#	269480
#	286355
#
# Disc length: 4381 seconds
#
# Revision: 1
# Processed by: cddbd v1.5.2PL0 Copyright (c) Steve Scherf et al.
# Submitted via: audiograbber 1.83.01
#
DISCID=3d111b16
DTITLE=Leadbelly - The Remaining Library Of Congress Recordings Vol. 4 1935-193
DTITLE=8
DYEAR=1997
DGENRE=Blues
TTITLE0=Send Down Your Hand (151-B)
TTITLE1=Death Letter Blues (152-A)
TTITLE2=Death Letter Blues (Fragments) (152-B)
TTITLE3=Dick Licker's Holler (154-A)
TTITLE4=Whoa Black Buck (Whoa Goddamn) (2 Parts) (154-B)
TTITLE5=Billy In The Low Ground (155-A)
TTITLE6=The Grey Goose (155-B)
TTITLE7=I'm All Out And Down (156-B)
TTITLE8=Frankie And Albert (157-A)
TTITLE9=I Walked Her And I Talked Her (157-B-1)
TTITLE10=Gwine Dig A Hole (993-A-1)
TTITLE11=Polly-Polly-Wee (993-A-2)
TTITLE12=Jawbone Walk (993-A-3)
TTITLE13=Laswt Night In The Evening (994-A)
TTITLE14=Somethin', Somethin' Keeps A-Worrin' Me (994-B)
TTITLE15=All Out And Down (995-B-3)
TTITLE16=Hello Central (996-A-1)
TTITLE17=Raccoon Up The 'Simmon Tree (996-A-2)
TTITLE18=Julie Ann Johnson (998-A-2)
TTITLE19=He's Just The Same Today (Sarah Garland, vcl) (2020-A)
TTITLE20=Rock Of Ages (Sarah and Jim Garland, vcl) (2023-A)
TTITLE21=Leaving On The Morning Train Blues (2501-B)
EXTD=
EXTT0=
EXTT1=
EXTT2=
EXTT3=
EXTT4=
EXTT5=
EXTT6=
EXTT7=
EXTT8=
EXTT9=
EXTT10=
EXTT11=
EXTT12=
EXTT13=
EXTT14=
EXTT15=
EXTT16=
EXTT17=
EXTT18=
EXTT19=
EXTT20=
EXTT21=
PLAYORDER=
